<svg width="56" height="39" viewBox="0 0 56 39" fill="none" xmlns="http://www.w3.org/2000/svg">
<path d="M41.8 0.583992C44.0187 0.583992 45.9813 1.01066 47.688 1.864C49.48 2.632 50.888 3.784 51.912 5.31999C52.8507 6.51466 53.6187 8.17867 54.216 10.312C54.8133 12.4453 55.112 14.8347 55.112 17.48C55.112 21.7467 54.0027 25.8 51.784 29.64C49.5653 33.3947 46.152 36.3387 41.544 38.472L40.392 36.168C42.6107 35.144 44.616 33.6933 46.408 31.816C48.2 29.8533 49.3947 27.8053 49.992 25.672C50.76 23.2827 50.888 20.936 50.376 18.632C48.1573 21.2773 45.0427 22.6 41.032 22.6C37.6187 22.6 34.888 21.6613 32.84 19.784C30.792 17.8213 29.768 15.0907 29.768 11.592C29.768 8.264 30.8773 5.61867 33.096 3.656C35.3147 1.60799 38.216 0.583992 41.8 0.583992ZM12.36 0.583992C14.5787 0.583992 16.5413 1.01066 18.248 1.864C20.04 2.632 21.448 3.784 22.472 5.31999C23.4107 6.51466 24.1787 8.17867 24.776 10.312C25.3733 12.4453 25.672 14.8347 25.672 17.48C25.672 21.7467 24.5627 25.8 22.344 29.64C20.1253 33.3947 16.712 36.3387 12.104 38.472L10.952 36.168C13.1707 35.144 15.176 33.6933 16.968 31.816C18.76 29.8533 19.9547 27.8053 20.552 25.672C21.32 23.2827 21.448 20.936 20.936 18.632C18.7173 21.2773 15.6027 22.6 11.592 22.6C8.17867 22.6 5.448 21.6613 3.4 19.784C1.352 17.8213 0.328 15.0907 0.328 11.592C0.328 8.264 1.43733 5.61867 3.656 3.656C5.87467 1.60799 8.776 0.583992 12.36 0.583992Z" fill="black"/>
</svg>
