<svg width="56" height="39" viewBox="0 0 56 39" fill="none" xmlns="http://www.w3.org/2000/svg">
<path d="M14.048 38.448C11.8293 38.448 9.824 38.064 8.032 37.296C6.32533 36.4427 4.96 35.248 3.936 33.712C3.08267 32.5173 2.31467 30.8533 1.632 28.72C1.03467 26.5867 0.736 24.1973 0.736 21.552C0.736 17.2853 1.84533 13.2747 4.064 9.52C6.28267 5.68 9.696 2.69333 14.304 0.559998L15.456 2.864C13.2373 3.888 11.232 5.38133 9.44 7.34399C7.73333 9.22133 6.53867 11.2267 5.856 13.36C5.088 15.7493 4.96 18.096 5.472 20.4C7.69067 17.7547 10.8053 16.432 14.816 16.432C18.2293 16.432 20.96 17.4133 23.008 19.376C25.056 21.2533 26.08 23.9413 26.08 27.44C26.08 30.768 24.9707 33.456 22.752 35.504C20.5333 37.4667 17.632 38.448 14.048 38.448ZM43.488 38.448C41.2693 38.448 39.264 38.064 37.472 37.296C35.7653 36.4427 34.4 35.248 33.376 33.712C32.5227 32.5173 31.7547 30.8533 31.072 28.72C30.4747 26.5867 30.176 24.1973 30.176 21.552C30.176 17.2853 31.2853 13.2747 33.504 9.52C35.7227 5.68 39.136 2.69333 43.744 0.559998L44.896 2.864C42.6773 3.888 40.672 5.38133 38.88 7.34399C37.1733 9.22133 35.9787 11.2267 35.296 13.36C34.528 15.7493 34.4 18.096 34.912 20.4C37.1307 17.7547 40.2453 16.432 44.256 16.432C47.6693 16.432 50.4 17.4133 52.448 19.376C54.496 21.2533 55.52 23.9413 55.52 27.44C55.52 30.768 54.4107 33.456 52.192 35.504C49.9733 37.4667 47.072 38.448 43.488 38.448Z" fill="black"/>
</svg>
